        <svg clip-rule="evenodd" fill-rule="evenodd" image-rendering="optimizeQuality" shape-rendering="geometricPrecision" text-rendering="geometricPrecision" viewBox="0 0 1707 1707" xmlns="http://www.w3.org/2000/svg"><g id="Layer_x0020_1" fill="rgb(0,0,0)"><path d="m1047 1615c-12 0-23-10-23-23v-883h46v883c0 13-10 23-23 23z"/><path d="m1330 1599c-7 0-13-3-18-9l-283-373c-8-10-6-24 4-32 10-7 25-5 32 5l283 372c8 10 6 24-4 32-4 3-9 5-14 5z"/><path d="m764 1599c-5 0-9-2-14-5-10-8-12-22-4-32l283-372c8-10 22-12 32-5 10 8 12 22 4 32l-283 373c-4 6-11 9-18 9z"/><path d="m1625 1070c-46 0-82-37-82-82v-815c0-45 36-82 82-82 45 0 82 37 82 82v815c0 45-37 82-82 82z"/><path d="m1516 988-396-266c-6-5-10-12-10-19v-245c0-7 4-14 10-19l396-266z"/><path d="m1083 683h-121c-13 0-23-10-23-23v-159c0-12 10-23 23-23h121z"/><path d="m724 978h-701c-13 0-23-10-23-23v-447c0-13 10-23 23-23h701c13 0 23 10 23 23v447c0 13-10 23-23 23zm-237-184c35 0 62-28 62-62 0-35-27-62-62-62-34 0-62 27-62 62 0 34 28 62 62 62zm0-99c20 0 37 17 37 37s-17 36-37 36-36-16-36-36 16-37 36-37zm-264 182c7 0 13-6 13-13v-92c0-7-6-12-13-12h-91c-7 0-13 5-13 12v92c0 7 6 13 13 13zm-78-26v-66h65v66zm77-149c7 0 13-6 13-13v-89c0-7-6-13-13-13h-89c-7 0-13 6-13 13v89c0 7 6 13 13 13zm-76-26v-64h63v64zm341 196c78 0 141-63 141-140 0-78-63-141-141-141-77 0-140 63-140 141 0 77 63 140 140 140zm0-255c64 0 115 51 115 115 0 63-51 114-115 114-63 0-114-51-114-114 0-64 51-115 114-115z"/><path d="m311 459 50-68c5-5 11-9 19-9h133c7 0 14 4 18 9l51 68z"/><path d="m88 459v-29c0-13 10-23 23-23h82c13 0 23 10 23 23v29z"/><path d="m432 1061h-117c-12 0-23-10-23-23v-33h162v33c0 13-10 23-22 23z"/><path d="m351 1117v-29h45v29z"/><path d="m477 1265h-207c-13 0-23-10-23-23v-75c0-13 10-23 23-23h207c12 0 23 10 23 23v75c0 13-11 23-23 23z"/><path d="m373 1615c-12 0-22-10-22-23v-300h45v300c0 13-10 23-23 23z"/><path d="m529 1583c-8 0-16-5-20-13l-137-278h51l127 258c5 11 1 25-11 31-3 1-6 2-10 2z"/><path d="m217 1583c-3 0-6-1-10-2-11-6-16-20-10-31l127-258h50l-136 278c-4 8-12 13-21 13z"/></g></svg>
