        <svg viewBox="0 0 64 64" xmlns="http://www.w3.org/2000/svg"><g fill="rgb(0,0,0)"><path d="m43 39h-22a1 1 0 0 1 -1-1v-18a1 1 0 0 1 1-1h22a1 1 0 0 1 1 1v18a1 1 0 0 1 -1 1zm-21-2h20v-16h-20z"/><path d="m43 39h-12a1 1 0 0 1 0-2h10l-4-5.333-2.15 2.872a1 1 0 0 1 -1.6-1.2l2.95-3.939a1 1 0 0 1 .8-.4 1 1 0 0 1 .8.4l6 8a1 1 0 0 1 -.8 1.6z"/><path d="m37 28a3 3 0 1 1 3-3 3 3 0 0 1 -3 3zm0-4a1 1 0 1 0 1 1 1 1 0 0 0 -1-1z"/><path d="m37 39h-16a1 1 0 0 1 -.809-1.588l8-11a1.037 1.037 0 0 1 1.617 0l8 11a1 1 0 0 1 -.808 1.588zm-14.036-2h12.072l-6.036-8.3z"/><path d="m47 63h-30a4 4 0 0 1 -4-4v-54a4 4 0 0 1 4-4h30a4 4 0 0 1 4 4v54a4 4 0 0 1 -4 4zm-30-60a2 2 0 0 0 -2 2v54a2 2 0 0 0 2 2h30a2 2 0 0 0 2-2v-54a2 2 0 0 0 -2-2z"/><path d="m47 51h-30a1 1 0 0 1 -1-1v-42a1 1 0 0 1 1-1h30a1 1 0 0 1 1 1v42a1 1 0 0 1 -1 1zm-29-2h28v-40h-28z"/><path d="m36 6h-8a1 1 0 0 1 0-2h8a1 1 0 0 1 0 2z"/><path d="m32 60a4 4 0 1 1 4-4 4 4 0 0 1 -4 4zm0-6a2 2 0 1 0 2 2 2 2 0 0 0 -2-2z"/></g></svg>
