<svg  xmlns="http://www.w3.org/2000/svg" xmlns:xlink="http://www.w3.org/1999/xlink" x="0px" y="0px"
          viewBox="0 0 512 512" style="enable-background:new 0 0 512 512;" xml:space="preserve">
        <g>
          <g>
            <path d="M388.813,0.691H123.181c-4.2,0-7.604,3.405-7.604,7.604V155.49c0,4.198,3.404,7.603,7.604,7.603
              c4.2,0,7.604-3.405,7.604-7.604V15.899h250.424v139.59c0,4.199,3.404,7.604,7.604,7.604s7.604-3.405,7.604-7.604V8.295
              C396.417,4.096,393.013,0.691,388.813,0.691z"/>
          </g>
        </g>
        <g>
          <g>
            <path d="M388.068,340.335h10.337c4.2,0,7.604-3.405,7.604-7.604c0-4.199-3.404-7.604-7.604-7.604H113.588
              c-4.2,0-7.604,3.405-7.604,7.604c0,4.199,3.404,7.604,7.604,7.604h10.337L111.15,459.469c-0.447,4.176,2.574,7.923,6.749,8.371
              c4.199,0.452,7.923-2.575,8.371-6.749l12.949-120.755h233.553l16.704,155.765H122.516l1.033-9.628
              c0.448-4.175-2.573-7.923-6.749-8.371c-4.164-0.446-7.923,2.574-8.371,6.749l-1.935,18.043c-0.231,2.145,0.462,4.288,1.904,5.894
              c1.443,1.605,3.499,2.521,5.656,2.521h283.887c2.157,0,4.214-0.917,5.656-2.521c1.442-1.605,2.134-3.747,1.904-5.894
              L388.068,340.335z"/>
          </g>
        </g>
        <g>
          <g>
            <path d="M421.259,171.663H49.536C22.222,171.663,0,193.886,0,221.2v169.497c0,27.314,22.222,49.537,49.536,49.537h46.788
              c4.2,0,7.604-3.405,7.604-7.604s-3.404-7.604-7.603-7.604H49.536c-18.929,0-34.328-15.4-34.328-34.329V221.2
              c0-18.929,15.4-34.329,34.328-34.329h371.723c4.2,0,7.604-3.405,7.604-7.604S425.46,171.663,421.259,171.663z"/>
          </g>
        </g>
        <g>
          <g>
            <path d="M462.453,171.663h-15.846c-4.2,0-7.604,3.405-7.604,7.604s3.404,7.604,7.604,7.604h15.846
              c18.935,0,34.339,15.4,34.339,34.329v169.497c0,18.929-15.405,34.329-34.339,34.329h-46.788c-4.2,0-7.604,3.405-7.604,7.604
              s3.404,7.604,7.604,7.604h46.788c27.32,0,49.547-22.222,49.547-49.537V221.2C512,193.886,489.773,171.663,462.453,171.663z"/>
          </g>
        </g>
        <g>
          <g>
            <path d="M422.273,289.271H89.727c-4.2,0-7.604,3.405-7.604,7.604v81.109c0,4.199,3.404,7.604,7.604,7.604h12.458
              c4.2,0,7.604-3.405,7.604-7.604s-3.404-7.604-7.604-7.604h-4.854v-65.901h317.339v65.901h-4.854c-4.2,0-7.604,3.405-7.604,7.604
              s3.404,7.604,7.604,7.604h12.458c4.2,0,7.604-3.405,7.604-7.604v-81.109C429.877,292.675,426.474,289.271,422.273,289.271z"/>
          </g>
        </g>
        <g>
          <g>
            <path d="M65.394,203.094c-18.728,0-33.964,15.236-33.964,33.964c0,18.728,15.236,33.964,33.964,33.964
              c18.728,0,33.964-15.236,33.964-33.964C99.358,218.33,84.122,203.094,65.394,203.094z M65.394,255.814
              c-10.342,0-18.756-8.414-18.756-18.756s8.414-18.756,18.756-18.756s18.756,8.414,18.756,18.756S75.736,255.814,65.394,255.814z"/>
          </g>
        </g>
        <g>
          <g>
            <path d="M144.475,203.094c-18.728,0-33.964,15.236-33.964,33.964c0,18.728,15.236,33.964,33.964,33.964
              c18.728,0,33.964-15.236,33.964-33.964C178.44,218.33,163.203,203.094,144.475,203.094z M144.475,255.814
              c-10.342,0-18.756-8.414-18.756-18.756s8.414-18.756,18.756-18.756c10.342,0,18.756,8.414,18.756,18.756
              S154.818,255.814,144.475,255.814z"/>
          </g>
        </g>
        <g>
          <g>
            <path d="M354.848,451.489H157.146c-4.2,0-7.604,3.405-7.604,7.604s3.404,7.604,7.604,7.604h197.703c4.2,0,7.604-3.405,7.604-7.604
              S359.049,451.489,354.848,451.489z"/>
          </g>
        </g>
        <g>
          <g>
            <path d="M350.034,417.017H161.959c-4.199,0-7.604,3.405-7.604,7.604s3.404,7.604,7.604,7.604h188.074
              c4.2,0,7.604-3.405,7.604-7.604S354.234,417.017,350.034,417.017z"/>
          </g>
        </g>
        <g>
          <g>
            <path d="M345.978,382.546H166.015c-4.2,0-7.604,3.405-7.604,7.604c0,4.199,3.404,7.604,7.604,7.604h179.963
              c4.2,0,7.604-3.405,7.604-7.604C353.582,385.951,350.179,382.546,345.978,382.546z"/>
          </g>
          </g>
        </svg>