        <svg  enable-background="new 0 0 512 512" viewBox="0 0 512 512" xmlns="http://www.w3.org/2000/svg"><path clip-rule="evenodd" d="m189.349 149.636c1.575 3.115 2.092 6.05 1.678 9.517l-2.206 18.459c-1.737 14.538 6.138 28.178 19.597 33.941l10.971 4.698-27.2 58.424c-1.61 3.458-1.169 7.485 1.149 10.511 2.319 3.025 6.095 4.498 9.853 3.841l27.847-4.866 14.204 24.443c1.837 3.161 5.183 5.075 8.812 5.075.156 0 .312-.004.469-.011 3.808-.173 7.174-2.427 8.785-5.885l26.395-56.694 8.008-2.42c3.342-1.01 6.322-1.01 9.664 0l8.009 2.42 26.395 56.693c1.609 3.457 4.974 5.712 8.782 5.886.158.007.314.011.471.011 3.628 0 6.973-1.914 8.812-5.076l14.203-24.442 27.848 4.866c3.759.656 7.533-.815 9.852-3.841 2.319-3.025 2.76-7.053 1.149-10.512l-27.2-58.423 10.97-4.697c13.459-5.765 21.335-19.404 19.597-33.942l-2.206-18.459c-.414-3.467.104-6.401 1.678-9.518l8.386-16.59c6.605-13.067 3.87-28.578-6.806-38.598l-13.556-12.724c-2.544-2.388-4.035-4.969-4.831-8.367l-4.24-18.101c-3.339-14.256-15.405-24.38-30.023-25.192l-18.562-1.033c-3.485-.194-6.286-1.214-9.081-3.305l-14.882-11.14c-11.723-8.774-27.473-8.774-39.194 0l-14.882 11.139c-2.796 2.092-5.597 3.111-9.083 3.306l-18.56 1.033c-14.62.813-26.686 10.937-30.026 25.193l-4.24 18.1c-.796 3.399-2.287 5.98-4.833 8.369l-13.554 12.723c-10.676 10.02-13.411 25.53-6.806 38.598zm64.142 141.32-11.421-19.654c-1.683-2.896-4.99-4.435-8.294-3.861l-22.392 3.913 21.535-46.254 10.165 15.542c6.132 9.378 16.24 14.726 26.929 14.825zm117.814-23.516c-3.3-.577-6.61.964-8.294 3.861l-11.421 19.654-16.527-35.5c10.69-.098 20.801-5.436 26.934-14.813l10.166-15.544 21.535 46.255zm-172.587-161.326 13.553-12.722c4.85-4.55 7.944-9.909 9.462-16.387l4.24-18.1c1.732-7.395 7.752-12.445 15.335-12.867l18.56-1.033c6.639-.369 12.455-2.485 17.78-6.471l14.883-11.14c6.079-4.551 13.938-4.551 20.017 0l14.883 11.141c5.325 3.984 11.141 6.101 17.779 6.47l18.561 1.033c7.583.422 13.603 5.473 15.334 12.866l4.24 18.102c1.518 6.476 4.612 11.836 9.46 16.385l13.555 12.723c5.538 5.197 6.902 12.936 3.476 19.713l-8.386 16.591c-3 5.935-4.075 12.03-3.286 18.634l2.206 18.459c.901 7.541-3.027 14.346-10.009 17.336l-17.089 7.318c-6.113 2.618-10.854 6.597-14.494 12.162l-10.175 15.558c-4.157 6.356-11.542 9.044-18.811 6.847l-17.795-5.378c-3.183-.962-6.322-1.442-9.46-1.442-3.139 0-6.278.48-9.461 1.442l-17.794 5.378c-7.27 2.198-14.654-.49-18.811-6.847l-10.171-15.558c-3.64-5.565-8.381-9.544-14.495-12.162l-17.089-7.318c-6.981-2.99-10.91-9.795-10.009-17.336l2.206-18.459c.79-6.604-.285-12.698-3.285-18.634l-8.387-16.591c-3.425-6.778-2.061-14.516 3.477-19.713zm103.823 104.815c43.667 0 79.192-35.526 79.192-79.193s-35.525-79.192-79.192-79.192-79.193 35.525-79.193 79.192 35.526 79.193 79.193 79.193zm0-142.386c34.844 0 63.192 28.348 63.192 63.192s-28.348 63.193-63.192 63.193c-34.845 0-63.193-28.349-63.193-63.193s28.348-63.192 63.193-63.192zm-9.327 102.98c4.752 0 9.505-1.81 13.123-5.427 8.88-8.88 17.834-17.963 26.493-26.746 5.201-5.274 10.401-10.551 15.615-15.812 7.187-7.253 7.148-19.008-.087-26.204-3.5-3.48-8.141-5.395-13.076-5.395-.025 0-.049 0-.074 0-4.955.02-9.603 1.967-13.086 5.485l-28.96 29.25-10.223-10.224c-7.236-7.233-19.01-7.236-26.248.001-3.504 3.505-5.435 8.166-5.435 13.123 0 4.959 1.93 9.619 5.435 13.124l23.398 23.397c3.62 3.619 8.372 5.428 13.125 5.428zm-25.957-41.948c0-.396.097-1.158.748-1.81.5-.499 1.155-.749 1.811-.749s1.311.25 1.81.748l15.907 15.908c1.501 1.501 3.536 2.344 5.657 2.344h.02c2.129-.005 4.167-.858 5.666-2.371l34.617-34.963c.605-.611 1.301-.741 1.778-.743.389-.008 1.155.093 1.805.739.991.986.993 2.6.004 3.598-5.223 5.272-10.434 10.557-15.644 15.842-8.64 8.764-17.573 17.825-26.413 26.664-.998.998-2.622.999-3.62 0l-23.398-23.397c-.651-.652-.748-1.414-.748-1.81zm206.074 196.776c-4.321-7.215-22.024-28.653-68.425-1.631l-80.633 46.964c-3.359 1.956-6.768 3.427-10.293 4.421 1.16-2.159 2.095-4.527 2.782-7.089 4.238-15.819-5.15-32.33-21.373-37.59-.343-.11-.693-.198-1.047-.263-23.104-4.167-45.939-12.423-64.288-19.057-6.392-2.311-12.429-4.493-17.57-6.16-20.973-6.805-39.836 1.571-55.524 10.66l-59.24 34.322-3.917-6.92c-5.396-9.535-17.544-12.902-27.082-7.506l-22.624 12.804c-9.535 5.397-12.902 17.546-7.506 27.082l66.513 117.524c2.608 4.607 6.866 7.928 11.991 9.348 1.772.491 3.571.734 5.359.734 3.381 0 6.718-.87 9.732-2.576l22.624-12.805c4.608-2.607 7.928-6.865 9.349-11.989s.766-10.483-1.842-15.092l-7.775-13.737 12.646-7.301 102.936 27.582c5.772 1.547 11.515 2.315 17.164 2.315 11.426 0 22.463-3.146 32.554-9.357l146.33-90.104c13.711-8.441 18.077-29.689 9.159-44.579zm-326.591 146c-.162.582-.611 1.66-1.811 2.339l-22.624 12.805c-1.199.678-2.355.509-2.938.348-.583-.162-1.661-.611-2.339-1.811l-66.512-117.525c-1.034-1.826-.363-4.243 1.463-5.277l22.623-12.803c.667-.378 1.321-.493 1.87-.493.438 0 .81.073 1.068.145.583.162 1.661.611 2.339 1.811l66.513 117.524c.678 1.199.509 2.354.348 2.937zm309.042-115.045-146.329 90.104c-11.399 7.017-23.91 8.771-37.188 5.212l-106.138-28.439c-2.049-.55-4.233-.263-6.07.8l-15.396 8.889-39.061-69.018 59.379-34.403c13.272-7.689 27.615-14.137 42.567-9.284 4.889 1.585 10.532 3.625 17.067 5.987 18.763 6.783 42.079 15.213 66.303 19.649 7.965 2.814 12.418 10.501 10.39 18.072-2.63 9.817-11.027 11.024-17.732 10.267-12.505-2.521-23.878-5.746-35.774-9.12-5.358-1.52-10.898-3.091-16.728-4.653-4.265-1.141-8.654 1.39-9.798 5.657-1.144 4.268 1.389 8.654 5.657 9.798 5.717 1.531 11.2 3.087 16.502 4.591 12.3 3.488 24.057 6.823 37.201 9.458.051.011.102.021.153.031 3.334.666 6.757 1.287 10.303 1.854 15.199 2.433 28.687.06 41.235-7.248l80.634-46.964c22.759-13.255 40.197-14.74 46.646-3.974 4.417 7.376 2.488 18.849-3.823 22.734zm-376.361 12.735c.645 4.414-2.41 8.516-6.824 9.161-4.414.646-8.516-2.41-9.161-6.824-.646-4.414 2.41-8.516 6.824-9.161 4.414-.646 8.516 2.409 9.161 6.824z" fill-rule="evenodd"/></svg>
