        <svg  enable-background="new 0 0 512 512"  viewBox="0 0 512 512" xmlns="http://www.w3.org/2000/svg"><path d="m56.3 293c-6.4 0-6.4-9.8 0-9.8h197.8c6.5 0 6.5 9.8 0 9.8zm0-25.7c-6.4 0-6.4-9.8 0-9.8h197.8c6.5 0 6.5 9.8 0 9.8zm0-25.7c-6.4 0-6.4-9.8 0-9.8h126.5c6.5 0 6.5 9.8 0 9.8zm106.4-168.6 10.6 22 24.2 3.3c4.1.6 5.6 5.6 2.7 8.4l-17.7 17 4.3 24.1c.7 4-3.5 7.1-7.1 5.2l-21.5-11.6-21.6 11.6c-3.5 1.9-8-1-7.1-5.5l4.3-23.8-17.7-17c-2.9-2.8-1.4-7.9 2.8-8.4l24.2-3.3 10.6-22c1.9-3.7 7.2-3.7 9 0zm2.9 28.6-7.4-15.3-7.4 15.3c-.7 1.4-2 2.5-3.7 2.7l-16.8 2.3 12.3 11.7c1.1 1.1 1.7 2.7 1.4 4.4l-3 16.7 14.9-8c1.4-.8 3.2-.9 4.7 0l15 8-3-16.5c-.4-1.6.1-3.4 1.4-4.6l12.3-11.7-16.7-2.3c-1.7-.1-3.2-1.1-4-2.7zm3.9-59.8 6.5 6c1.5 1.4 3.3 2 5.4 1.8l8.8-1c8.6-1 16.6 4.8 18.3 13.3l1.7 8.7c.4 2.1 1.5 3.6 3.3 4.6l7.7 4.3c7.6 4.3 10.6 13.6 7 21.5l-3.7 8.1c-.9 1.9-.9 3.8 0 5.7l3.7 8.1c3.7 7.9.6 17.2-7 21.5l-5.1 2.9 17.8 42.7c1.5 3.7-1.9 7.7-5.8 6.6l-19.7-5.4-6.4 15.8c-1.6 3.9-7.3 4.1-9 0l-13.6-32.7c-1.3.2-2.4.8-3.4 1.7l-6.5 6c-6.4 5.9-16.1 5.9-22.5 0l-6.5-6c-1-.9-2.1-1.5-3.4-1.7l-13.6 32.7c-1.7 4.1-7.5 3.9-9 0l-6.5-16-19.7 5.4c-3.9 1.1-7.3-2.9-5.8-6.6l17.8-42.7c-5.8-3.2-10.6-5.2-12.8-12.2-1.2-3.9-1.1-8.2.7-12.1l3.7-8.1c.9-1.9.9-3.8 0-5.7l-3.7-8.1c-3.7-7.9-.6-17.2 7-21.5l7.7-4.3c1.8-1 2.9-2.6 3.3-4.6l1.7-8.7c1.7-8.5 9.6-14.3 18.3-13.3l8.8 1c2.1.3 3.9-.3 5.4-1.8l6.5-6c6.5-5.8 16.2-5.8 22.6.1zm32.4 130.4c-3.3 2.4-7.4 3.4-11.4 2.9l7.1 17 3.6-8.8c1-2.4 3.7-3.7 6.2-2.8l13.9 3.8-11.6-27.8-1.3 6.5-.4 1.3-.1.2-.2.6-.1.3-.3.5-1.1 1.8-.2.3-.1.2-.2.3-.2.3-.6.8-.7.7-.1.1-1.1 1-.1.1-.5.3-.1.1-.2.1zm-76.3 3c-3.6.3-7.7-.7-10.7-2.8zm-12.8-4.6c-.1-.1-.2-.2-.3-.3l-1-1.1-.2-.3-.3-.5-.2-.3-.1-.2-.1-.2-.3-.5-.1-.2-.2-.3-.1-.1-.2-.4-.1-.2-.3-.5-.1-.2-.1-.2-.1-.4-.1-.2-.1-.2-.1-.4-.1-.2-.1-.2-.1-.2-.1-.2-.1-.2-.1-.2-.1-.2-.1-.2v-.2l-.1-.2v-.2l-.1-.2-1-5.3-11.5 27.8 13.8-3.8c2.5-.9 5.2.3 6.2 2.8l3.6 8.8 7.1-17-.4.1zm56.6-115.6-6.5-6c-2.6-2.4-6.7-2.4-9.3 0l-6.5 6c-3.7 3.4-8.3 4.9-13.2 4.3l-8.8-1c-3.5-.4-6.8 1.9-7.5 5.4l-1.7 8.7c-1 4.9-3.8 8.8-8.2 11.3l-7.8 4.3c-3.1 1.8-4.3 5.6-2.9 8.8l3.7 8.1c2.1 4.6 2.1 9.4 0 13.9l-3.7 8.1c-1.5 3.3-.3 7.1 2.9 8.8 2.1 1.2 8.2 4.3 9.9 5.8 3 2.4 4.9 5.4 5.8 9.1l.1.7 1.8 8.8v.2l.1.1v.2l.1.1.1.2v.1l.1.2.1.1.1.1.1.1v.1l.1.1.1.1.1.1.1.1.1.1.1.1.1.1.1.1.1.1.1.2.1.1.1.1.3.3.1.1c.1.1.2.1.2.2l.1.1h.1c.1.1.2.1.3.2l.1.1h.1l.1.1.1.1h.1l.2.1h.1l.3.1.9.4.7.2.3.1.3.1h.3.2.6.1l9.5-1.1c5-.6 9.6.9 13.2 4.3l6.5 6c2.6 2.4 6.7 2.4 9.3 0l6.5-6c7.2-6.7 13.9-3.9 22.3-3.3l1.9-.1.5-.1h.1l.3-.1h.1.2l.3-.1c.1 0 .1-.1.2-.1l.2-.1.1-.1h.1l.1-.1.1-.1.1-.1.1-.1.1-.1.1-.1.1-.1.1-.1.1-.1.1-.1.1-.1.1-.1.4-.5.5-.7.4-.6.2-.4v-.1l.1-.1v-.1l.1-.3c.6-2 1.4-7.3 2-10 1.1-4.8 3.9-8.4 8.1-10.8l7.7-4.3c3.1-1.8 4.4-5.6 2.9-8.8l-3.7-8.1c-2.1-4.5-2.1-9.4 0-13.9l3.7-8.1c1.5-3.2.3-7.1-2.9-8.8l-7.7-4.3c-4.4-2.4-7.2-6.3-8.2-11.3l-1.7-8.7c-.7-3.5-3.9-5.9-7.5-5.4l-8.8 1c-5.4 1.1-10-.4-13.7-3.8zm-56.2 116-.1-.1-.1-.1-.1-.1zm88.7 1.2c-.1.1-.2.1-.3.2zm84.8 233.3c-1.5-2.2-.9-5.3 1.3-6.8s5.3-.9 6.8 1.4c7 10.4 15.5 18.3 25.6 23.5 10 5.2 21.7 7.9 34.8 8.1l34-.1c10.1 0 18.6-3.6 25.8-10.7s11-15.5 11.1-25.6c.2-11.9.3-19.1.3-26.3.1-7.2.1-14.3.3-26-.1-2.7 1.8-5 4.5-5.2l39.3-2c8.3-.4 13.7-9.6 9.4-16.7-12.9-21.3-33.7-52.4-42.4-70.9-.3-.7-.5-1.4-.5-2.2 3-92.3-38.8-160-136.7-160-2.4 0-3.9 0-4.6 0v34.3h20.1c2.7 0 4.9 2.2 4.9 4.9v15.3c8.5 2 16.6 5.4 24 9.9l10.9-10.8c1.9-1.9 5-1.9 6.9 0l20.9 20.9c1.9 1.9 1.9 5 0 6.9l-10.8 10.8c4.5 7.4 7.9 15.5 9.9 24h15.3c2.7 0 4.9 2.2 4.9 4.9v29.6c0 2.7-2.2 4.9-4.9 4.9h-15.3c-2 8.5-5.4 16.6-9.9 24l10.8 10.8c1.9 1.9 1.9 5 0 6.9l-20.9 20.9c-1.9 1.9-5 1.9-6.9 0l-10.9-10.8c-7.4 4.5-15.5 7.9-24 9.9v15.3c0 2.7-2.2 4.9-4.9 4.9h-20.1v21.2c0 2.7-2.2 4.9-4.9 4.9h-115.3c4 6.9 7.2 14 9 22.7 2.4 11.8 1.9 26.2-2.9 46.3-7.7 32.4-9.6 45.6-17 77.1h140.8l6.8-28.4c2.9-12.3 10.5-22.6 20.7-29-19.3-4.4-34.7-15.6-46.2-32.8zm-205.4-334h-50.8v268.7h255.5v-324.4h-199.8v50.8c0 2.7-2.2 4.9-4.9 4.9zm-43.9-9.8h39v-39zm43.9-55.7h209.7c2.7 0 4.9 2.2 4.9 4.9v65.6l11.7.1c95.1 3.1 139.5 69.6 139.5 160.3 0 2.5-.1 5.3-.1 8.4 5.8 12.1 16.2 28.5 26.6 45 5.2 8.3 10.5 16.7 14.9 24 8.1 13.3-1.5 30.8-17.3 31.5l-34.6 1.7-.6 48.1c-.3 12.6-5.1 23.6-14.1 32.4s-20.1 13.5-32.7 13.5h-31.6c-17.2 0-32 11.8-36 28.5l-7.7 32.2c-.5 2.2-2.5 3.7-4.7 3.7h-150.8c-3.1 0-5.7-2.9-4.6-6.5 4.1-17 6.6-29 9.1-41 2.5-11.8 5-23.7 9.3-41.7 4.4-18.5 4.8-31.6 2.7-42.1-1.9-9.5-5.9-17-10.8-24.6h-138.5c-2.7 0-4.9-2.2-4.9-4.9v-278.5c0-1.4.6-2.6 1.5-3.5l55.6-55.7.4-.3.3-.2.5-.3 1.3-.5h.1.2.1.1.1c.2-.1.3-.1.4-.1zm214.5 124.4v37.9c31.9-3.1 59.5 21.9 59.5 54 0 32-27.6 57.1-59.5 53.9v38h15.2v-14.2c-.1-2.4 1.5-4.6 4-5.1 5-.9 9.8-2.4 14.4-4.3s8.9-4.3 13-7c1.9-1.5 4.7-1.4 6.5.4l10.2 10.1 14-14-10.2-10.1c-1.6-1.6-1.9-4.3-.6-6.2 2.8-4.1 5.2-8.6 7.2-13.2 1.8-4.5 3.3-9.2 4.3-14.1.3-2.4 2.4-4.3 4.8-4.3h14.4v-19.8h-14.4c-2.3 0-4.4-1.6-4.8-4-1-5-2.4-9.9-4.3-14.5s-4.3-8.9-7-13c-1.5-1.9-1.4-4.7.4-6.5l10.1-10.2-14-14-10.2 10.1c-1.6 1.6-4.3 1.9-6.2.6-4.2-2.8-8.6-5.2-13.3-7.2-4.5-1.9-9.2-3.3-14.1-4.3-2.4-.3-4.3-2.4-4.3-4.9v-14.4h-15.1zm0 47.7v88.3c26.4 3.1 49.7-17.5 49.7-44.1.1-26.7-23.3-47.3-49.7-44.2zm-238.9-135.9"/></svg>
